<svg width="1407" height="920" viewBox="0 0 1407 920" fill="none" xmlns="http://www.w3.org/2000/svg">
<path d="M1129.8 269.127C1128.25 266.583 1127.35 263.608 1127.35 260.407C1127.35 251.128 1134.85 243.616 1144.09 243.616C1146.85 243.616 1149.45 244.295 1151.75 245.491C1173.5 265.343 1187.15 293.969 1187.15 325.795C1187.15 342.156 1190.78 357.675 1197.23 371.589C1197.62 372.419 1198.01 373.238 1198.42 374.046C1201.28 379.812 1204.63 385.288 1208.42 390.418C1209.12 391.366 1209.83 392.293 1210.56 393.209C1212.01 395.041 1213.52 396.83 1215.08 398.565C1215.19 398.684 1215.3 398.803 1215.41 398.932C1216.51 400.15 1217.65 401.346 1218.81 402.521C1218.83 402.532 1218.85 402.553 1218.86 402.564C1221.43 405.14 1224.12 407.586 1226.94 409.893C1228.15 410.884 1229.38 411.854 1230.64 412.792C1234.56 415.734 1238.69 418.407 1242.98 420.8C1244.02 421.371 1245.06 421.942 1246.12 422.481C1246.9 422.88 1247.68 423.268 1248.48 423.656C1249.71 424.249 1250.96 424.82 1252.22 425.369C1252.89 425.671 1253.58 425.962 1254.27 426.242C1255.26 426.652 1256.25 427.04 1257.25 427.417C1258.59 427.924 1259.94 428.409 1261.31 428.862C1262.78 429.357 1264.27 429.82 1265.77 430.241C1267.48 430.726 1269.21 431.179 1270.96 431.577C1271.83 431.782 1272.71 431.976 1273.59 432.148C1275.35 432.515 1277.13 432.828 1278.92 433.108C1284.3 433.927 1289.8 434.358 1295.41 434.358C1299.15 434.358 1302.83 434.164 1306.48 433.798C1308.29 433.615 1310.1 433.377 1311.89 433.108C1312.79 432.968 1313.68 432.827 1314.57 432.666C1365.22 423.591 1403.66 379.198 1403.66 325.795C1403.66 272.392 1365.22 227.999 1314.57 218.924C1313.68 218.763 1312.79 218.612 1311.89 218.482C1310.1 218.213 1308.29 217.976 1306.48 217.792C1302.83 217.426 1299.15 217.232 1295.41 217.232C1355.19 217.232 1403.66 168.625 1403.66 108.669C1403.66 93.1601 1400.42 78.4166 1394.57 65.074C1385.23 39.143 1364.73 18.5793 1338.87 9.21352C1329.04 5.64613 1318.43 3.69526 1307.36 3.69526C1306.27 3.69526 1305.2 3.73845 1304.11 3.78156C1254.42 5.4952 1214.66 46.4177 1214.66 96.6737C1214.66 120.913 1223.91 142.974 1239.06 159.518C1241.36 160.919 1243.3 162.859 1244.69 165.166L1244.5 165.327C1246.05 167.871 1246.95 170.845 1246.95 174.046C1246.95 183.326 1239.45 190.838 1230.21 190.838C1227.44 190.838 1224.84 190.159 1222.54 188.962C1200.79 169.11 1187.14 140.485 1187.14 108.659C1187.14 55.2555 1148.7 10.8623 1098.05 1.7876C1097.16 1.62593 1096.27 1.47541 1095.37 1.34607C1093.58 1.07663 1091.77 0.839379 1089.96 0.65616C1086.31 0.289721 1082.63 0.0957031 1078.89 0.0957031C1073.28 0.0957031 1067.77 0.526976 1062.4 1.34607C1060.61 1.61551 1058.83 1.93846 1057.07 2.3049C1056.19 2.48812 1055.31 2.68241 1054.44 2.87641C1052.7 3.28596 1050.97 3.72757 1049.25 4.21256C1047.74 4.64367 1046.26 5.1074 1044.79 5.59239C1043.42 6.04505 1042.07 6.52987 1040.72 7.03642C1039.73 7.41364 1038.74 7.80146 1037.75 8.21101C1037.06 8.49123 1036.37 8.78229 1035.69 9.08406C1034.44 9.63372 1033.19 10.1945 1031.95 10.7981C1031.17 11.1753 1030.39 11.5739 1029.6 11.9727C1028.55 12.5115 1027.51 13.0828 1026.46 13.654C1022.16 16.0467 1018.03 18.7192 1014.11 21.6615C1012.86 22.5991 1011.63 23.5696 1010.42 24.5611C1007.6 26.8675 1004.9 29.3138 1002.34 31.8897C1002.32 31.9004 1002.3 31.922 1002.29 31.9328C1001.13 33.0968 999.993 34.2932 998.886 35.5218C998.778 35.6404 998.671 35.7588 998.564 35.8881C996.995 37.6233 995.49 39.4126 994.039 41.2448C993.308 42.1609 992.599 43.0984 991.9 44.036C988.107 49.1662 984.753 54.6412 981.895 60.4072C981.486 61.2263 981.099 62.0451 980.712 62.8642C974.243 76.7781 970.632 92.2982 970.632 108.659C970.632 125.019 974.253 140.538 980.712 154.452C981.099 155.282 981.486 156.102 981.895 156.91C984.753 162.676 988.107 168.151 991.9 173.281C992.599 174.23 993.308 175.156 994.039 176.072C995.49 177.905 996.995 179.694 998.564 181.429C998.671 181.548 998.778 181.666 998.886 181.795C999.993 183.013 1001.13 184.21 1002.29 185.384C1002.3 185.395 1002.32 185.417 1002.34 185.427C1004.9 188.003 1007.6 190.45 1010.42 192.756C1011.63 193.748 1012.86 194.718 1014.11 195.656C1018.04 198.598 1022.16 201.27 1026.46 203.663C1027.49 204.234 1028.54 204.806 1029.6 205.344C1030.37 205.743 1031.16 206.131 1031.95 206.519C1033.19 207.112 1034.44 207.683 1035.69 208.233C1036.37 208.535 1037.06 208.826 1037.75 209.106C1038.74 209.516 1039.73 209.903 1040.72 210.281C1042.07 210.787 1043.42 211.272 1044.79 211.725C1046.26 212.221 1047.75 212.684 1049.25 213.105C1050.96 213.59 1052.69 214.042 1054.44 214.441C1055.31 214.645 1056.19 214.84 1057.07 215.012C1058.83 215.379 1060.61 215.691 1062.4 215.971C1067.77 216.79 1073.28 217.221 1078.89 217.221C1019.1 217.221 970.632 265.828 970.632 325.784C970.632 341.293 973.877 356.037 979.724 369.38C989.063 395.311 1009.57 415.874 1035.43 425.24C1045.26 428.807 1055.87 430.758 1066.94 430.758C1068.02 430.758 1069.1 430.715 1070.18 430.672C1119.88 428.958 1159.64 388.036 1159.64 337.78C1159.64 313.541 1150.39 291.479 1135.23 274.935M1255.68 209.677L1222.56 188.962L1151.75 245.481" fill="#72AEF9"/>
<path d="M165.231 645.192C167.775 643.644 170.75 642.742 173.951 642.742C183.23 642.742 190.742 650.243 190.742 659.486C190.742 662.248 190.063 664.848 188.867 667.148C169.014 688.9 140.389 702.549 108.563 702.549C92.2026 702.549 76.6825 706.171 62.7686 712.63C61.9387 713.017 61.1199 713.404 60.3115 713.812C54.5455 716.671 49.07 720.024 43.9399 723.818C42.9914 724.516 42.0647 725.225 41.1486 725.956C39.3164 727.407 37.5276 728.911 35.7925 730.48C35.6739 730.588 35.555 730.696 35.4257 730.803C34.2078 731.91 33.0114 733.049 31.8366 734.21C31.8258 734.221 31.8048 734.242 31.794 734.253C29.2181 736.821 26.7713 739.519 24.4649 742.335C23.4734 743.549 22.5034 744.774 21.5658 746.032C18.6235 749.954 15.9504 754.081 13.5578 758.38C12.9866 759.412 12.4153 760.454 11.8764 761.518C11.4777 762.292 11.0898 763.077 10.7018 763.872C10.1091 765.108 9.53803 766.354 8.98837 767.612C8.6866 768.289 8.39554 768.977 8.11532 769.665C7.70577 770.653 7.31794 771.642 6.94073 772.641C6.43418 773.985 5.94883 775.339 5.49617 776.704C5.0004 778.176 4.53719 779.67 4.11686 781.164C3.63187 782.873 3.17896 784.603 2.78019 786.355C2.57541 787.225 2.38164 788.107 2.2092 788.988C1.84276 790.75 1.53006 792.524 1.24985 794.318C0.430747 799.692 0 805.194 0 810.804C0 814.544 0.193492 818.23 0.559931 821.874C0.743151 823.69 0.980406 825.495 1.24985 827.29C1.38996 828.182 1.53023 829.074 1.6919 829.966C10.7667 880.617 55.1599 919.06 108.563 919.06C161.966 919.06 206.359 880.617 215.434 829.966C215.595 829.074 215.746 828.182 215.876 827.29C216.145 825.495 216.382 823.69 216.566 821.874C216.932 818.23 217.126 814.544 217.126 810.804C217.126 870.59 265.733 919.06 325.689 919.06C341.198 919.06 355.941 915.814 369.284 909.968C395.215 900.628 415.779 880.123 425.145 854.265C428.712 844.432 430.663 833.825 430.663 822.755C430.663 821.67 430.62 820.595 430.577 819.51C428.863 769.815 387.94 730.051 337.684 730.051C313.445 730.051 291.384 739.304 274.84 754.457C273.439 756.757 271.499 758.692 269.192 760.089L269.031 759.895C266.487 761.443 263.513 762.346 260.312 762.346C251.032 762.346 243.52 754.844 243.52 745.602C243.52 742.84 244.199 740.239 245.396 737.939C265.248 716.187 293.873 702.538 325.7 702.538C379.103 702.538 423.496 664.096 432.571 613.445C432.732 612.553 432.883 611.661 433.012 610.769C433.282 608.974 433.519 607.169 433.702 605.352C434.068 601.709 434.263 598.023 434.263 594.283C434.263 588.673 433.831 583.17 433.012 577.797C432.743 576.002 432.42 574.229 432.053 572.466C431.87 571.585 431.676 570.704 431.482 569.833C431.072 568.092 430.631 566.362 430.146 564.643C429.715 563.138 429.251 561.655 428.766 560.182C428.313 558.817 427.828 557.463 427.322 556.12C426.945 555.121 426.557 554.132 426.147 553.143C425.867 552.455 425.576 551.767 425.274 551.09C424.724 549.833 424.164 548.586 423.561 547.35C423.183 546.566 422.784 545.781 422.386 544.997C421.847 543.943 421.275 542.901 420.704 541.859C418.312 537.56 415.639 533.422 412.697 529.51C411.759 528.253 410.789 527.027 409.798 525.813C407.491 522.997 405.044 520.3 402.469 517.731C402.458 517.72 402.436 517.699 402.425 517.688C401.261 516.528 400.065 515.388 398.836 514.281C398.718 514.174 398.599 514.067 398.47 513.959C396.735 512.39 394.946 510.886 393.114 509.435C392.198 508.704 391.26 507.994 390.322 507.296C385.192 503.502 379.717 500.149 373.951 497.29C373.132 496.882 372.313 496.495 371.494 496.109C357.58 489.639 342.06 486.027 325.7 486.027C309.339 486.027 293.82 489.65 279.906 496.109C279.076 496.495 278.256 496.882 277.448 497.29C271.682 500.149 266.207 503.502 261.077 507.296C260.128 507.994 259.202 508.704 258.286 509.435C256.453 510.886 254.664 512.39 252.929 513.959C252.81 514.067 252.692 514.174 252.563 514.281C251.345 515.388 250.148 516.528 248.974 517.688C248.963 517.699 248.941 517.72 248.931 517.731C246.355 520.3 243.908 522.997 241.602 525.813C240.61 527.027 239.64 528.253 238.703 529.51C235.761 533.433 233.087 537.56 230.695 541.859C230.124 542.89 229.552 543.933 229.013 544.997C228.615 545.77 228.227 546.555 227.839 547.35C227.246 548.586 226.675 549.833 226.125 551.09C225.823 551.767 225.533 552.455 225.252 553.143C224.843 554.132 224.454 555.121 224.077 556.12C223.571 557.463 223.086 558.817 222.633 560.182C222.137 561.655 221.674 563.149 221.253 564.643C220.768 566.351 220.316 568.081 219.917 569.833C219.712 570.704 219.518 571.585 219.346 572.466C218.979 574.229 218.667 576.002 218.387 577.797C217.568 583.17 217.137 588.673 217.137 594.283C217.137 534.497 168.529 486.027 108.574 486.027C93.0645 486.027 78.3205 489.273 64.9778 495.119C39.0469 504.459 18.4836 524.964 9.11783 550.822C5.55043 560.655 3.59956 571.263 3.59956 582.332C3.59956 583.418 3.64275 584.492 3.68586 585.578C5.39951 635.272 46.3221 675.036 96.5781 675.036C120.817 675.036 142.879 665.783 159.423 650.63M224.681 771.072L245.396 737.961L188.878 667.148" fill="#72AEF9"/>
<path d="M557.434 485.795H485.07V920.001H557.434V485.795Z" fill="#FEFD54"/>
<path d="M919.276 485.795H485.07V558.159H919.276V485.795Z" fill="#FEFD54"/>
<path d="M919.276 847.637H485.07V920.001H919.276V847.637Z" fill="#FEFD54"/>
<path d="M919.276 665.266H485.07V737.63H919.276V665.266Z" fill="#FEFD54"/>
<path d="M1044.28 485.795H971.918V920.001H1044.28V485.795Z" fill="#73E163"/>
<path d="M1406.12 485.795H971.918V558.159H1406.12V485.795Z" fill="#73E163"/>
<path d="M1406.12 847.637H971.918V920.001H1406.12V847.637Z" fill="#73E163"/>
<path d="M1406.12 665.266H971.918V737.63H1406.12V665.266Z" fill="#73E163"/>
<path d="M484.701 2.55664H557.074V219.688C557.074 299.638 621.882 364.446 701.832 364.446C781.782 364.446 846.59 299.638 846.59 219.688V2.55664H918.963V219.688C918.963 339.603 821.747 436.819 701.832 436.819C581.917 436.819 484.701 339.603 484.701 219.688V2.55664Z" fill="#73E163"/>
<path d="M72.3742 0H0.0102539V434.206H72.3742V0Z" fill="#FEFD54"/>
<path d="M306.849 0C377.198 0 434.216 57.0291 434.216 127.367C434.216 197.716 377.198 254.734 306.849 254.734H0.0102539V182.37H306.849C337.228 182.37 361.852 157.746 361.852 127.367C361.852 96.9883 337.228 72.364 306.849 72.364H0.0102539V0H306.849Z" fill="#FEFD54"/>
<path d="M306.849 182.369C377.198 182.369 434.216 239.387 434.216 309.736C434.216 380.085 377.198 437.104 306.849 437.104H0.0102539V364.74H306.849C337.228 364.74 361.852 340.115 361.852 309.736C361.852 279.357 337.228 254.733 306.849 254.733H0.0102539V182.369H306.849Z" fill="#FEFD54"/>
</svg>
